<svg xmlns="http://www.w3.org/2000/svg" version="1.1" viewBox="399 32 1182 781"><path transform="translate(1007,62)" d="m0 0 7 6 9 8 4 1 10-7 6-5h2l1 6-4 6-5 4 2 4 19 19 7 8 11 13 9 12 5 4h1l1-8h2l1 12 11 8 33 22 11 9 7 8 6 12 1 9-3 10-1 3 10 9 7 10 5 14v21l-4 14-6 12 1 7 6 13 3 11v22l-4 13-7 11-8 8-8 4-14 4-8 1h-13l-5-1v15l-4 16-5 10-11 12-7 6-11 5-8 2h-20l-8-4-3 12-6 9-7 6-5-1-3-8-3-19v-4l-17 8-10 2h-17l-12-4-10-6-12-11-9-12-8-15-5-16v-4h-17l-15-4-10-7-8-9-5-10-2-8-1-13 2-15 5-12 6-9v-6l-8-17-1-5v-19l4-13 7-11 11-10 4-3-4-12v-12l4-10 11-13 18-12 15-9 23-11 9-7 13-19 22-24 7-6 7-8 1-2-7-10-1-6zm16 26-3 4 1 9 4 9 8 9 5 10v8l-5 9-4 4 1 4 10 14 9 13 13 18 7 10 5 3h1l2 8 9 14 4 10-1 5-7 2-5-5-1-8-2-2-5 1-4 5-2 6 4 7 10 8 5 1 13-8 8-6 4 2 5 5 4-6 15-10 7-6 4-6-12-9-3-1-2-5-1-7-16 2-10 3-13 6 4-7 14-10 12-5 7-2 13-2-5-5-14-11-13-12-8-8h-2l-5 27-6 13h-3l-1-31-3-11-8-16-10-15-11-12-16-16-4-7zm-11 12-7 7-9 11-7 8-13 20-8 17-3 11-1 6v14l2 18-5-8-4-14-1-7-1-24-7 3-18 11-12 8-10 8-2 1v2l18 4 8 5 3 5v12l-3-4-7-8-10-3h-11l-11 2-1 1 1 7 4 2 11-8 7-1-2 5-9 10-2 4 13 18 7 12-1 7-2 4-5-1-10-14-12-15-10 13-4 8-2 9v15l3 11 6 8 15 15 9 5 5-2 9-7 3-4-1-5-9 3-7 3 1-5 8-4 7-1-1-6-3-1h-8l-7 1h-8v-5l12-4h16l6 3 4 8 2 7v8l-3 8-8 5-12 3 2 5 6 12v9l-5 8-7 4-7 1-8-2-5-5-4-8v-8l3-6 6-7-16-12-2 1-4 7-6 11-2 6v16l6 12 7 7 12 6 15 2 15-2 21-7 16-8 6-4-2-4-11-13-8-11 6 2 11-1 14-7 16-11v-4l-9-9-10-8-12-11-11-9-7-7 4-5 7-1 8 7 10 9 12 11 4 5 8 6 7 4 4-1-1-5-16-24-4-4h-6l-2-4v-10l-11-14-6 3-12 11-15 11h-6l10-15 9-9 9-11 12-15 7-10 9-11 10-13 11-13 10-14 3-4-1-7-5-10 1-10 4-13v-12l-1-2zm11 21-4 4-3 5v7l6 7 5-1 4-5 1-6-4-8-3-3zm-1 46-7 7-13 18-14 19-8 12-8 11-1 2v6l3 3 13-1 3 7v3l-3 2 5 3 10 18 12 18 4-2 9-10 10-15 11-18 8-10 6-8 4-1v-2l-5-2-4-11-12-19-8-12-12-17zm115 38-8 2 1 2 17 5 5-1v-5l-4-3zm18 33-18 12-13 8-6 3h-4l-1-3-24 18-10 7-12 11-12 12-11 9-11 11 2 4 8 7 11 10 11 8 16-16 6-3 4-1h7l-2 4-16 16-4 6 2 4 14 9 15 7 12 4 6 1h13l10-3 10-7 5-5 4-5 2-6v-16l-8-3 1-6 6-6-1-8-3-5-6 1-11 7-5 3 6 7 5 6 2 4-1 6-7 7-10 5-3 1h-8l-5-3-5-6-2-7v-7l4-7 8-7v-2l-10-6-7-6-5-7-1-7 5-5 6-3 13-1 7 3 9 10 6 5 6-4 8-9 5-13v-22l-4-12-6-8zm-100 23-4 6-1 7-5 6-3 2 2 4 4 5 4-2 12-11 5-5-1-4-11-8zm-21 33-10 11-2 3 1 4 1 2 4-2 12-12-2-4zm86 6-5 3 5 5 13 8 5-1 6-4-5-5-10-6zm-111 18-13 9-15 9-13 5-1 3 7 8 4 1 17-12 14-11 8-7-2-4zm-111 17-5 4-1 3v8l4 7 4 2h6l6-4 2-4v-9l-5-5-4-2zm125 1-14 12-15 12-9 7-1 3 9 12 4 1 10-9 8-9 5-5 2 2v24l3 3 11 2 8-8 11-14-1-4-19-19-7-8-2-2zm108 0-6 3-3 6 2 8 4 4h7l6-4 2-2v-10l-5-5zm-66 38-5 5-12 18-10 23-7 12 1 5 9 7 11 4 7 1h11l11-3 9-6 6-7 2-5 1-7-2-1-15 5h-9l-6-3-4-5-1-3v-13l2-8 4 1 8 18 2 2 14-7 10-1 4-3 1-5-5-3-19-10-12-9zm-94 1-19 9-10 5-20 7-2 2 7 14 6 5 3-9 5 1 5 5 5 1 9-3 4-4 3-12h4v14l-6 12-9 3-17 1 6 9 5 6 9 6 10 3h18l15-4 10-5v-4l-16-24-7-10-14-26zm37 12-9 4 1 5 7 11 10 13 5 6h1l4-17 2-7-4-4-8-4h-2l-1-6-1-1zm15 62v12l1 12h4l3-4 1-10-4-8-2-2z" fill="#956318"/><path transform="translate(960,491)" d="m0 0h33l33 3 26 3 41 1 47-1-2 5-10 15-10 12-7 11-14 18-8 12-10 13-9 12-7 9-12 17-10 14-11 15-10 15-9 12-12 17-12 16-10 14-8 10-6 8-3 3 25 1 24 3 39 9 18 6 19 8 32 10 10 2 15 1 12-2 15-6 11-8h3l-1 5-9 15-6 7-15 10-12 5-8 2h-23l-14-3-30-11-36-12-23-7-14-3-20-2h-39l-27 2 3-5 12-19 12-16 7-11 20-28 12-17 9-13 10-14 11-15 8-11 9-12 10-14 7-9 14-20 20-30 10-13 3-4h-31l-45-3-21-1h-31l-20 2-19 5-20 9-11 8-6 8-2-1 3-10 6-11 10-14 8-8 14-8 15-6 18-4z" fill="#956318"/><path transform="translate(1342,387)" d="m0 0h10l8 3 2 4-5 1h-10l-10 4-8 9-6 13-4 19-6 62-4 42-5 70-1 13 13-24 9-10 9-8 9-5 10-4 9-2h17l13 4 8 7 5 7 3 10v36l-4 40-3 26v27l2 7 2 2 10 1 13-6-1 6-9 8-10 6-12 3-13-1-8-4-5-8-4-12-1-10 1-32 4-51v-26l-3-10-4-7-7-3h-12l-11 4-9 8-7 10-7 15-5 19-2 24-1 82-9 1h-24l-1-1-1-7v-69l2-80 3-60 4-55 4-42 3-14 5-10 7-9 7-8 10-7 9-4 13-3z" fill="#956318"/><path transform="translate(653,437)" d="m0 0h2l-1 11-8 51-4 45-1 23v72l2 29 5 33 5 22 7 24 8 16 9 15 11 12 12 7 10 3 7 1h13l16-3-6 7-8 5-7 2-8 1h-13l-12-2-13-5-17-10-11-11-7-8-7-11-11-21-6-18-7-30-4-27-3-29v-7l-57-1-6 2-12 13-9 11-24 24-14 11-11 8-20 8-15 4h-17l-10-4-6-4-5-10-1-4v-15l3-14 4-9 7-8 13-9 15-6 30-7 18-3 13-1 30-1 7-2 9-14 12-20 10-18 9-15 13-24 9-16 8-16 12-20 9-14 9-12 9-8zm-39 70-16 32-9 15-13 24-10 17-8 14-7 10v2l35 4 19 2 1-1 2-46 4-50 3-18v-5zm-95 127-32 2-28 4-23 5-12 4-6 4-2 5v7l5 10 8 5 8 2h13l17-4 12-5 13-7 10-8 7-7 8-7 8-9v-1z" fill="#956318"/><path transform="translate(778,391)" d="m0 0h21l7 2 1 3-18 3-8 4-8 7-4 9-5 25-4 29-7 85-2 28-2 48-1 34v55l2 13 2 3 4 1h7l14-7 4 1-2 4-15 14-8 4-10 2-13-1-10-4-7-8-3-11-1-17v-47l2-84 2-49 3-37 4-37 4-24 4-15 5-10 7-7 13-10 10-4z" fill="#956318"/><path transform="translate(1165,574)" d="m0 0h22l15 3 8 4 7 6 5 9 2 7v29l-2 46v40l2 18 2 4h12l11-5-1 6-10 9-10 5-13 3-12-1-6-3-5-6-3-8-2-10-1-28-2 1-8 17-7 11-9 10-10 9-10 5-9 2h-8l-10-2-12-6-8-9-8-16-2-8v-23l5-14 8-13 11-11 11-7 18-6 5-1h11l2 3-8 6-6 4-11 18-4 10-3 16 1 14 4 12 6 8 5 4 3 1h7l7-4 9-9 6-10 10-21 5-16 2-13v-51l-3-11-5-8-10-6-7-2h-15l-13 4-14 8v4l5 6 1 2v6l-5 8-4 4h-7l-7-4-4-6v-7l6-10 8-8 10-7 12-6 14-4z" fill="#956318"/><path transform="translate(1551,574)" d="m0 0h10l11 4 5 5 3 5 1 4v11l-4 8-6 5-9 3-10-1-7-4-4-5-1-15-12 5-8 8-10 14-8 16-6 16-4 20-2 18-1 65-14 1h-21l-2-6-1-61v-113l1-1h35l1 1-1 46v33l6-18 10-23 11-16 9-10 8-7 11-6z" fill="#956318"/><path transform="translate(809,626)" d="m0 0h90v22l-1 1-19 1h-70l-1-1v-22z" fill="#956318"/><path transform="translate(1025,199)" d="m0 0 4 2 9 8 7 11 2 10-9 6-17 12 3 10 5 13-2 5-4 4h-2l-9-27-3-21v-10l6-12 9-10zm-1 16-6 9-2 5v8l6-1 14-8 1-2-7-10z" fill="#956318"/><path transform="translate(1023,32)" d="m0 0 7 1 7 7 4 8v10l-4 4-7 3h-7l-8-4-4-6 1-7 5-10zm2 11-4 3v8l3 3h5l2-2v-7l-5-5z" fill="#956318"/><path transform="translate(1055,308)" d="m0 0 5 1 11 5 13 5 3 2v4l-9 1-17-3-9-4 2-9z" fill="#956318"/><path transform="translate(887,262)" d="m0 0 5 1 7 7-2 4-7 6-5-1v-12z" fill="#956318"/><path transform="translate(1155,261)" d="m0 0 4 1 5 8-1 5-3 3h-5l-3-5v-7z" fill="#956318"/><path transform="translate(1129,305)" d="m0 0h3l1 3-6-1z" fill="#956318"/><path transform="translate(1058,228)" d="m0 0 3 1v2h-3z" fill="#956318"/><path transform="translate(1126,305)" d="m0 0" fill="#956318"/><path transform="translate(966,213)" d="m0 0" fill="#956318"/></svg>